<svg width="181" height="31" viewBox="0 0 181 31" fill="none" xmlns="http://www.w3.org/2000/svg">
<path d="M17.0447 22.0015H12.4127L11.6927 19.5775H6.10073L5.38073 22.0015H0.724727L6.26873 5.20149H11.5007L17.0447 22.0015ZM8.88473 10.1695L7.20473 15.8815H10.5887L8.88473 10.1695ZM19.8263 5.20149H26.3543C28.0503 5.20149 29.4743 5.75349 30.6263 6.85749C31.7783 7.96149 32.3543 9.36949 32.3543 11.0815C32.3543 12.7935 31.7783 14.2015 30.6263 15.3055C29.4743 16.4095 28.0503 16.9615 26.3543 16.9615H24.1223V22.0015H19.8263V5.20149ZM24.1223 12.8815H26.3543C26.8343 12.8815 27.2343 12.7135 27.5543 12.3775C27.8903 12.0415 28.0583 11.6095 28.0583 11.0815C28.0583 10.5535 27.8903 10.1295 27.5543 9.80949C27.2343 9.47349 26.8343 9.30549 26.3543 9.30549H24.1223V12.8815ZM35.5894 5.20149H42.1174C43.8134 5.20149 45.2374 5.75349 46.3894 6.85749C47.5414 7.96149 48.1174 9.36949 48.1174 11.0815C48.1174 12.7935 47.5414 14.2015 46.3894 15.3055C45.2374 16.4095 43.8134 16.9615 42.1174 16.9615H39.8854V22.0015H35.5894V5.20149ZM39.8854 12.8815H42.1174C42.5974 12.8815 42.9974 12.7135 43.3174 12.3775C43.6534 12.0415 43.8214 11.6095 43.8214 11.0815C43.8214 10.5535 43.6534 10.1295 43.3174 9.80949C42.9974 9.47349 42.5974 9.30549 42.1174 9.30549H39.8854V12.8815Z" fill="#292930"/>
<path d="M60.7125 16.6735H51.3525V12.8815H60.7125V16.6735ZM72.1365 9.6655C73.7365 9.6655 75.0725 10.2735 76.1445 11.4895C77.2325 12.7055 77.7765 14.2095 77.7765 16.0015C77.7765 17.7935 77.2325 19.3055 76.1445 20.5375C75.0565 21.7375 73.7205 22.3375 72.1365 22.3375C70.6805 22.3375 69.5445 21.8575 68.7285 20.8975V26.8015H64.7445V10.0015H68.7285V11.1055C69.5445 10.1455 70.6805 9.6655 72.1365 9.6655ZM69.4245 17.8975C69.8885 18.3775 70.4965 18.6175 71.2485 18.6175C72.0005 18.6175 72.6085 18.3775 73.0725 17.8975C73.5365 17.4015 73.7685 16.7695 73.7685 16.0015C73.7685 15.2335 73.5365 14.6015 73.0725 14.1055C72.6085 13.6255 72.0005 13.3855 71.2485 13.3855C70.4965 13.3855 69.8885 13.6255 69.4245 14.1055C68.9605 14.6015 68.7285 15.2335 68.7285 16.0015C68.7285 16.7695 68.9605 17.4015 69.4245 17.8975ZM88.6782 16.3855V10.0015H92.6622V22.0015H88.6782V20.8015C87.9582 21.8255 86.8462 22.3375 85.3422 22.3375C84.0142 22.3375 82.9422 21.8895 82.1262 20.9935C81.3262 20.0815 80.9262 18.8095 80.9262 17.1775V10.0015H84.9102V16.6735C84.9102 17.2815 85.0702 17.7535 85.3902 18.0895C85.7102 18.4095 86.1502 18.5695 86.7102 18.5695C87.3342 18.5695 87.8142 18.3855 88.1502 18.0175C88.5022 17.6335 88.6782 17.0895 88.6782 16.3855ZM103.921 9.6655C105.521 9.6655 106.857 10.2735 107.929 11.4895C109.017 12.7055 109.561 14.2095 109.561 16.0015C109.561 17.7935 109.017 19.3055 107.929 20.5375C106.841 21.7375 105.505 22.3375 103.921 22.3375C102.465 22.3375 101.329 21.8575 100.513 20.8975V22.0015H96.5286V5.20149H100.513V11.1055C101.329 10.1455 102.465 9.6655 103.921 9.6655ZM101.209 17.8975C101.673 18.3775 102.281 18.6175 103.033 18.6175C103.785 18.6175 104.393 18.3775 104.857 17.8975C105.321 17.4015 105.553 16.7695 105.553 16.0015C105.553 15.2335 105.321 14.6015 104.857 14.1055C104.393 13.6255 103.785 13.3855 103.033 13.3855C102.281 13.3855 101.673 13.6255 101.209 14.1055C100.745 14.6015 100.513 15.2335 100.513 16.0015C100.513 16.7695 100.745 17.4015 101.209 17.8975ZM116.838 22.0015H112.854V4.48149H116.838V22.0015ZM124.295 8.3455C123.847 8.7935 123.311 9.0175 122.687 9.0175C122.063 9.0175 121.519 8.7935 121.055 8.3455C120.607 7.88149 120.383 7.33749 120.383 6.71349C120.383 6.08949 120.607 5.55349 121.055 5.10549C121.519 4.65749 122.063 4.43349 122.687 4.43349C123.311 4.43349 123.847 4.65749 124.295 5.10549C124.759 5.55349 124.991 6.08949 124.991 6.71349C124.991 7.33749 124.759 7.88149 124.295 8.3455ZM124.679 22.0015H120.695V10.0015H124.679V22.0015ZM132.282 13.5055C132.282 13.7135 132.45 13.8895 132.786 14.0335C133.138 14.1615 133.666 14.3055 134.37 14.4655C134.85 14.5615 135.29 14.6895 135.69 14.8495C136.106 14.9935 136.514 15.2095 136.914 15.4975C137.33 15.7695 137.65 16.1535 137.874 16.6495C138.114 17.1295 138.234 17.6815 138.234 18.3055C138.234 19.6975 137.722 20.7135 136.698 21.3535C135.658 22.0095 134.442 22.3375 133.05 22.3375C130.362 22.3375 128.57 21.3855 127.674 19.4815L131.154 17.7295C131.458 18.6095 132.082 19.0495 133.026 19.0495C133.746 19.0495 134.106 18.8335 134.106 18.4015C134.106 18.1935 133.938 18.0255 133.602 17.8975C133.282 17.7535 132.762 17.5935 132.042 17.4175C131.562 17.3215 131.122 17.1935 130.722 17.0335C130.338 16.8575 129.938 16.6335 129.522 16.3615C129.122 16.0895 128.81 15.7295 128.586 15.2815C128.362 14.8175 128.25 14.2895 128.25 13.6975C128.25 12.4175 128.722 11.4255 129.666 10.7215C130.61 10.0175 131.746 9.6655 133.074 9.6655C135.426 9.6655 137.074 10.5935 138.018 12.4495L134.658 13.9615C134.306 13.2735 133.81 12.9295 133.17 12.9295C132.578 12.9295 132.282 13.1215 132.282 13.5055ZM148.667 9.6655C149.995 9.6655 151.059 10.1215 151.859 11.0335C152.675 11.9295 153.083 13.1935 153.083 14.8255V22.0015H149.099V15.3295C149.099 14.7215 148.939 14.2575 148.619 13.9375C148.299 13.6015 147.859 13.4335 147.299 13.4335C146.675 13.4335 146.187 13.6255 145.835 14.0095C145.499 14.3775 145.331 14.9135 145.331 15.6175V22.0015H141.347V5.20149H145.331V11.2015C146.051 10.1775 147.163 9.6655 148.667 9.6655ZM168.614 17.4655H160.334C160.734 18.4415 161.63 18.9295 163.022 18.9295C163.87 18.9295 164.598 18.6495 165.206 18.0895L168.086 20.1055C166.918 21.5935 165.198 22.3375 162.926 22.3375C160.894 22.3375 159.262 21.7455 158.03 20.5615C156.814 19.3615 156.206 17.8495 156.206 16.0255C156.206 14.2175 156.806 12.7055 158.006 11.4895C159.206 10.2735 160.734 9.6655 162.59 9.6655C164.382 9.6655 165.862 10.2655 167.03 11.4655C168.198 12.6495 168.782 14.1535 168.782 15.9775C168.782 16.5375 168.726 17.0335 168.614 17.4655ZM160.286 14.7055H164.894C164.59 13.5855 163.838 13.0255 162.638 13.0255C161.406 13.0255 160.622 13.5855 160.286 14.7055ZM176.037 10.0015V12.2335C176.261 11.4655 176.701 10.8655 177.357 10.4335C178.029 9.98549 178.789 9.76149 179.637 9.76149V14.1775C178.725 14.0335 177.893 14.2015 177.141 14.6815C176.405 15.1615 176.037 15.9455 176.037 17.0335V22.0015H172.053V10.0015H176.037Z" fill="#5360FE"/>
</svg>
